REM MD5 bb6315373c155d78005647c9ff15870c
FILE "Gundam the Battle Master (Japan) (Demo 2).bin" BINARY
  TRACK 01 MODE2/2352
    INDEX 01 00:00:00
  TRACK 02 AUDIO
    INDEX 00 00:45:54
    INDEX 01 00:47:54
  TRACK 03 AUDIO
    INDEX 00 02:20:25
    INDEX 01 02:22:25
  TRACK 04 AUDIO
    INDEX 00 04:20:68
    INDEX 01 04:22:68
  TRACK 05 AUDIO
    INDEX 00 05:59:55
    INDEX 01 06:01:55
REM LEADOUT 09:31:55
